<svg width="41" height="32" viewBox="0 0 41 32" fill="none" xmlns="http://www.w3.org/2000/svg">
<path d="M5.5625 1.20312H14.0469V14C15.2135 13.1562 16.4062 12.4844 17.625 11.9844C18.8542 11.474 20.1406 11.2188 21.4844 11.2188C22.2031 11.2188 22.8698 11.3385 23.4844 11.5781C24.1094 11.8177 24.651 12.1875 25.1094 12.6875C25.5677 13.1875 25.9271 13.8333 26.1875 14.625C26.4479 15.4062 26.5781 16.3438 26.5781 17.4375V27H18.0938V16.9062C18.0938 16.3646 17.974 15.9688 17.7344 15.7188C17.5052 15.4688 17.125 15.3438 16.5938 15.3438C16.3542 15.3438 16.1146 15.3802 15.875 15.4531C15.6458 15.526 15.4219 15.6198 15.2031 15.7344C14.9844 15.849 14.776 15.9792 14.5781 16.125C14.3802 16.2708 14.2031 16.4167 14.0469 16.5625V27H5.5625V1.20312Z" fill="#DEDEDE"/>
<circle cx="36.5" cy="22.5" r="4.5" fill="#DEDEDE"/>
</svg>
